<svg id="Layer_1" data-name="Layer 1" xmlns="http://www.w3.org/2000/svg" viewBox="0 0 422 200"><defs><style>.cls-1{fill:#e32726;}.cls-2{fill:#fff;}</style></defs><rect class="cls-1" width="422" height="200" rx="12"/><path class="cls-2" d="M283.75,143.66V124.74h8.78V75.26h-8.78V56.34H327V75.26h-6.64V95.78l21.5-20.52h-6.63V56.34h36.09V75.26h-7.41l-21.72,20h2.09q10,0,14.86,4.86t5.1,14.23l.11,4.55a7.33,7.33,0,0,0,1.29,4.36c.79,1,2.13,1.46,4,1.46h5.82v18.92H356.43q-10.47,0-15.5-4.85t-5.12-14.24l-.11-7.29q-.17-8.77-8.12-8.78h-7.19v16.24h7.41v18.92Z"/><path class="cls-2" d="M46.48,143.66V124.74h8.78V75.26H46.48V56.34H93.82q17.55,0,26.52,6t9,18a20.46,20.46,0,0,1-3.1,11.19,19.65,19.65,0,0,1-9,7.46,21.88,21.88,0,0,1,9.93,7.6,20.38,20.38,0,0,1,3.62,12.15q0,12-8.78,18.46t-25.12,6.44Zm44-68.95H83.12V91.5h7.35q10.2,0,10.2-8.39T90.47,74.71Zm-7.35,50.58h8.5q10.53,0,10.53-9.27t-10.53-9.27h-8.5Z"/><path class="cls-2" d="M232.18,143.66V124.74h9.33V75.26h-9.33V56.34h47.17V75.26H270v49.48h9.32v18.92Z"/><path class="cls-2" d="M135.33,143.66V124.74h8.77V75.26h-8.77V56.34h50.4q16.35,0,25.13,6.12t8.77,17.9q0,7.64-3.78,12.67a20.53,20.53,0,0,1-10.26,7.19,14.34,14.34,0,0,1,7.65,5.32,15.87,15.87,0,0,1,2.61,8.83l.11,4.55a7.2,7.2,0,0,0,1.29,4.36c.78,1,2.12,1.46,4,1.46h5.81v18.92H208q-10.47,0-15.49-4.85t-5.13-14.24l-.11-7.29q-.17-8.77-8.12-8.78H172v16.24h7.4v18.92Zm45.14-68.95H172V93.25h8.5Q191,93.25,191,84T180.47,74.71Z"/></svg>